<svg width="49" height="32" xmlns="http://www.w3.org/2000/svg">
 <g>
  <title>Layer 1</title>
  <g id="svg_1">
   <g id="Layer_20_51_">
    <g id="svg_2">
     <polygon id="svg_3" points="15.420000076293945,24.364998817443848 22.229999542236328,24.364998817443848 22.229999542236328,25.93599796295166 15.420000076293945,25.93599796295166 15.420000076293945,27.23099994659424 36.8380012512207,27.23099994659424 36.8380012512207,25.93599796295166 28.898000717163086,25.93599796295166 28.898000717163086,24.364998817443848 37.729000091552734,24.364998817443848 37.729000091552734,20.77799892425537 15.420000076293945,20.77799892425537 "/>
     <polygon id="svg_4" points="9.48900032043457,2.7819995880126953 41.957000732421875,2.7819995880126953 41.957000732421875,15.75999927520752 44.73899841308594,15.75999927520752 44.73899841308594,0 6.706999778747559,0 6.706999778747559,8.690999031066895 9.48900032043457,8.690999031066895 "/>
     <path id="svg_5" d="m0,31.35h14.523v-21.786h-14.523v21.786l0,0zm7.568,-1.094c-0.386,0 -0.7,-0.312 -0.7,-0.699c0,-0.386 0.314,-0.699 0.7,-0.699c0.387,0 0.699,0.312 0.699,0.699s-0.312,0.699 -0.699,0.699zm-5.468,-18.592h10.325l-0.001,16.072h-10.324v-16.072l0,0z"/>
     <path id="svg_6" d="m38.715,16.597v15.337h10.117v-15.337h-10.117l0,0zm5.264,0.634c0.121,0 0.22,0.101 0.22,0.221c0,0.121 -0.099,0.222 -0.22,0.222c-0.123,0 -0.223,-0.101 -0.223,-0.222c0,-0.121 0.099,-0.221 0.223,-0.221zm-1.314,0.736h2.623v0.212h-2.623v-0.212l0,0zm1.226,13.305c-0.291,0 -0.524,-0.236 -0.524,-0.525c0,-0.29 0.233,-0.524 0.524,-0.524c0.289,0 0.525,0.234 0.525,0.524c0,0.288 -0.236,0.525 -0.525,0.525zm3.478,-1.806c-2.368,0.013 -6.016,0.022 -7.189,0.012v-10.545l7.189,-0.001v10.534l0,0z"/>
    </g>
   </g>
  </g>
 </g>
</svg>